<?xml version="1.0" encoding="UTF-8"?>
<svg id="Calque_1" data-name="Calque 1" xmlns="http://www.w3.org/2000/svg" viewBox="0 0 4000 2317">
  <defs>
    <style>
      .cls-1 {
        fill: #d3111d;
      }
    </style>
  </defs>
  <g>
    <rect class="cls-1" x="2087.11" width="157.55" height="1351.82"/>
    <path d="m1111.04,987.37v-280.78h-381.4c-140.03,0-222.95-83.67-222.95-208.25s82.92-208.26,222.95-208.26h667v1061.75h285.59V0h-952.59C412.73,0,226.64,189.66,226.64,489.04s186.09,498.33,503,498.33h381.4Z"/>
    <path d="m2860.6,987.37v-280.78h396.83c140.03,0,222.95-83.67,222.95-208.25s-82.92-208.26-222.95-208.26h-667v1061.75h-285.59V0h952.59C3574.35,0,3760.44,189.66,3760.44,489.04s-186.09,498.33-503,498.33h-396.83Z"/>
    <rect class="cls-1" x="1742.42" width="157.55" height="1351.82"/>
  </g>
  <g>
    <path d="m207.44,2123.89v-117.59h276.59c84.3,0,134.51-53.53,134.51-131.93s-50.21-130.97-134.51-130.97H119.35v573.6H0v-695.01h484.03c159.14,0,251.97,96.56,251.97,248.56s-92.83,253.34-251.97,253.34H207.44Z"/>
    <path d="m827.85,2317v-695.01h120.3v695.01h-120.3Z"/>
    <path d="m1294.82,2317v-573.6h-261.44v-121.41h643.17v121.41h-261.43v573.6h-120.3Z"/>
    <path d="m1756.08,2317v-695.01h614.75v121.41h-495.4v452.19h496.35v121.41h-615.7Zm207.44-302.1v-102.3h381.74v102.3h-381.74Z"/>
    <path d="m2474.99,2317v-695.01h120.3v573.6h463.2v121.41h-583.5Z"/>
    <path d="m3151.28,2317v-695.01h120.29v695.01h-120.29Z"/>
    <path d="m3618.26,2317v-573.6h-261.43v-121.41h643.17v121.41h-261.44v573.6h-120.31Z"/>
  </g>
</svg>